<svg width="77" height="37" viewBox="0 0 77 37" fill="none" xmlns="http://www.w3.org/2000/svg">
<path fill-rule="evenodd" clip-rule="evenodd" d="M44.7279 5.59525C44.7279 9.03036 44.7523 11.2052 44.7913 11.2287C44.8262 11.2497 47.7546 11.2953 51.2987 11.3302C57.4296 11.3904 59.3032 11.4473 59.975 11.5939C60.7029 11.7528 61.6772 12.3099 62.5766 13.0815C63.4823 13.8586 64.0784 14.6134 64.7879 15.8813L65.1547 16.5368L65.1998 26.0644C65.2247 31.3046 65.2634 35.8204 65.2859 36.0996L65.3268 36.6071H71.1634H77L76.9718 32.6942C76.9563 30.5422 76.9253 26.0233 76.9028 22.6523L76.8619 16.5232L68.3336 8.26154L59.8054 0H52.2666H44.7279V5.59525ZM12.5104 5.86106V11.4602L13.0652 11.4617C17.3261 11.4731 26.5308 11.6034 26.8859 11.6572C29.0157 11.9801 31.1658 13.6328 32.1799 15.7265C32.5455 16.4813 32.6682 16.936 32.7639 17.8896C32.8124 18.3721 32.8494 21.7923 32.8701 27.6845L32.9018 36.7381H38.6803H44.4588L44.4576 26.6695L44.4562 16.6009L36.0223 8.43142L27.5883 0.261947H20.0493H12.5104V5.86106ZM0 24.2956V37H6.12066H12.2413V24.2956V11.5912H6.12066H0V24.2956Z" fill="white"/>
</svg>
